<?xml version="1.0" encoding="UTF-8" standalone="no"?>
<svg
   xmlns="http://www.w3.org/2000/svg"
   width="400"
   height="400"
   id="artivisi-icon"
   version="1.0"
   viewBox="0 0 400 400">
  <g id="icon-layer">
    <!-- Green swirl element only - extracted and centered -->
    <path
       id="green-swirl"
       style="fill:#58c034;fill-opacity:1;fill-rule:nonzero;stroke:none"
       transform="translate(-450, -20) scale(0.8, 0.8)"
       d="M 637.19652,183.5228 C 695.45523,80.985067 824.90689,42.003207 904.65292,48.226367 C 819.36081,52.627377 701.49917,95.343147 637.19652,183.5228 M 970.0608,89.339027 C 968.35815,94.815417 965.42082,100.66021 960.91027,106.91324 L 966.97412,106.91324 C 965.39095,110.08953 963.36966,113.38532 960.91027,116.81055 L 966.97412,116.81055 C 965.36107,119.97689 963.37963,123.28263 960.91027,126.6979 L 990.70178,126.6979 C 1003.1182,110.77657 1007.569,97.145367 1005.7369,85.883947 C 1006.2248,82.498547 1006.1551,79.312277 1005.6772,76.285337 C 1019.7067,-17.261137 661.07353,18.962583 599.64846,240.85552 C 595.40676,253.6105 587.16232,251.08141 585.41984,242.15989 C 565.83432,141.2352 500.70523,-20.457352 457.71067,80.616657 L 462.53984,80.417507 C 460.89693,83.444457 459.28389,86.760157 457.71067,90.513967 L 462.53984,90.314827 C 460.89693,93.351727 459.28389,96.667427 457.71067,100.39136 L 487.6117,99.166647 C 498.85321,26.420417 550.0026,142.56945 576.34896,298.89518 C 580.61058,314.68707 599.86752,319.21753 607.43489,298.89518 C 619.09459,57.038347 943.96337,18.265589 970.0608,89.339027 M 637.26621,173.50601 C 695.59463,70.968277 825.16577,32.076027 904.85206,38.339007 C 819.62964,42.670327 701.64852,85.306427 637.26621,173.50601 M 494.68121,59.338427 C 500.98402,52.936047 509.90554,61.051047 519.84268,79.899747 C 511.5385,69.056517 503.04514,61.698257 494.68121,59.338427 M 494.68121,69.245697 C 500.98402,62.833357 509.90554,70.948357 519.84268,89.807017 C 511.5385,78.953827 503.04514,71.595567 494.68121,69.245697" />
  </g>
</svg>